<?xml version="1.0" standalone="no"?>
<!DOCTYPE svg PUBLIC "-//W3C//DTD SVG 20010904//EN"
 "http://www.w3.org/TR/2001/REC-SVG-20010904/DTD/svg10.dtd">
<svg version="1.0" xmlns="http://www.w3.org/2000/svg"
 width="1024.000000pt" height="1024.000000pt" viewBox="0 0 1024.000000 1024.000000"
 preserveAspectRatio="xMidYMid meet">
<metadata>
</metadata>
<g transform="translate(0.000000,1024.000000) scale(0.100000,-0.100000)"
fill="#000000" stroke="none">
<path d="M4930 9080 c-380 -20 -743 -122 -1155 -325 -259 -127 -491 -293 -714
-510 -205 -200 -348 -387 -489 -640 -163 -294 -243 -511 -321 -875 -95 -447
-104 -525 -76 -650 9 -36 29 -140 45 -232 62 -342 141 -599 265 -853 157 -323
335 -577 569 -811 190 -190 317 -288 566 -439 255 -154 605 -294 864 -345 592
-116 1138 -84 1623 94 367 135 627 282 911 513 347 283 641 682 842 1141 86
199 149 422 197 699 26 148 28 177 28 443 -1 334 -15 440 -89 681 -46 147
-182 444 -289 629 -118 205 -299 447 -454 605 -163 168 -459 392 -668 507
-109 59 -358 169 -483 212 -356 123 -768 178 -1172 156z m292 -200 c65 -19
120 -68 158 -145 30 -60 35 -80 34 -141 0 -261 -308 -392 -487 -208 -85 87
-119 223 -82 321 30 77 107 150 185 174 37 11 150 10 192 -1z m-493 -32 c-7
-13 -22 -35 -35 -50 -12 -15 -32 -58 -44 -95 -12 -37 -27 -73 -34 -80 -6 -6
-75 -29 -152 -52 -272 -77 -442 -152 -674 -296 -212 -131 -363 -260 -537 -458
-126 -142 -196 -235 -272 -364 -112 -189 -156 -285 -276 -607 -21 -54 -49
-111 -64 -127 -24 -27 -27 -28 -46 -12 -15 12 -16 14 -3 10 12 -4 15 -2 11 9
-4 10 -16 14 -37 12 -39 -4 -53 -17 -52 -48 1 -21 -5 -26 -52 -36 l-54 -12 5
31 c10 70 87 348 121 442 102 275 312 634 500 852 374 434 914 749 1502 878
60 13 131 24 157 24 46 1 47 0 36 -21z m837 4 c-3 -5 2 -18 12 -28 17 -20 34
-47 58 -93 12 -22 13 -18 11 40 -2 63 -2 64 26 67 16 2 64 -4 108 -13 348 -70
799 -287 1104 -530 245 -195 523 -508 523 -589 0 -15 6 -32 13 -37 12 -8 12
-10 0 -18 -7 -5 -11 -13 -7 -19 3 -5 3 -31 0 -56 -5 -34 -11 -46 -20 -42 -10
4 -14 -3 -14 -23 0 -17 6 -31 15 -35 13 -5 14 -10 4 -28 -7 -14 6 -6 30 20 23
23 45 42 48 42 4 0 -7 -15 -24 -32 -18 -18 -43 -58 -57 -87 -21 -46 -26 -52
-32 -35 -11 28 -111 191 -143 233 -16 20 -53 70 -84 111 -135 182 -357 387
-583 540 -230 155 -493 271 -759 335 -38 9 -74 20 -80 23 -5 3 -20 7 -33 8
-48 5 -64 27 -102 142 -29 87 -34 112 -23 112 8 0 12 -4 9 -8z m-868 -466 c19
-36 61 -95 94 -131 33 -36 59 -67 57 -69 -17 -12 -98 -26 -153 -26 -172 0
-481 -108 -583 -203 -38 -35 -39 -42 -17 -98 20 -47 28 -47 134 3 254 119 447
175 649 189 74 6 138 12 142 14 15 10 19 -31 18 -175 l0 -149 -47 -6 c-141
-17 -200 -30 -329 -74 -99 -32 -143 -43 -143 -34 0 7 6 10 14 7 15 -6 16 11 3
32 -4 7 6 16 26 24 67 25 79 31 74 36 -6 6 -193 -62 -225 -82 -12 -8 -20 -19
-16 -25 3 -5 0 -16 -6 -24 -13 -16 -4 -20 30 -15 12 1 12 -1 3 -11 -10 -10
-20 -10 -53 1 -31 10 -43 11 -52 2 -18 -18 -32 -14 -17 5 13 15 12 15 -11 2
-14 -7 -27 -13 -30 -14 -8 0 -72 -46 -97 -68 -17 -15 -20 -24 -12 -38 6 -13 6
-19 -1 -19 -5 0 -10 7 -10 15 0 18 -5 19 -32 4 -15 -8 -17 -13 -8 -19 9 -6 9
-13 1 -28 -6 -11 -11 -32 -11 -45 0 -23 -3 -24 -27 -18 -20 6 -27 13 -25 27 2
16 -1 15 -19 -6 -12 -14 -25 -25 -30 -25 -5 0 -8 -2 -7 -5 2 -6 -57 -66 -80
-81 -15 -9 -14 -10 5 -6 15 3 20 1 16 -9 -2 -7 -10 -11 -17 -8 -19 7 -79 -58
-64 -68 9 -5 8 -8 -5 -8 -11 0 -15 -4 -11 -12 4 -6 3 -8 -4 -4 -20 12 -111
-132 -108 -171 2 -12 -1 -20 -5 -17 -20 12 -120 -229 -114 -275 5 -40 35 -80
59 -81 34 0 11 -10 -50 -21 -116 -21 -236 -114 -287 -222 -25 -54 -29 -57 -54
-51 -16 4 -30 8 -31 10 -2 1 3 58 13 126 20 149 63 327 104 431 112 281 314
568 440 625 37 17 81 50 81 62 0 4 -21 10 -47 12 -27 3 -69 15 -95 27 -47 23
-61 44 -71 111 -2 17 -7 5 -16 -38 -15 -67 -29 -91 -137 -234 -181 -237 -307
-492 -360 -728 -26 -118 -54 -300 -54 -352 0 -19 -5 -39 -12 -46 -15 -15 -58
-16 -58 0 0 6 -18 48 -39 92 -36 75 -86 135 -159 193 -20 15 -21 22 -13 48 5
17 22 75 37 130 78 282 252 620 438 850 194 239 466 467 731 611 117 63 322
144 455 178 190 50 188 50 228 -28z m1202 -7 c380 -121 755 -372 1025 -685
111 -129 195 -240 195 -259 0 -3 -9 -5 -21 -5 -12 0 -23 -8 -26 -20 -3 -11 -9
-20 -13 -20 -4 0 -11 -10 -14 -22 -7 -22 -7 -22 -16 -3 -8 19 -9 19 -9 -2 -1
-19 5 -22 52 -26 l52 -3 -61 -2 -61 -2 -7 39 c-15 98 -129 161 -228 126 -43
-15 -43 -15 -62 13 -30 43 -165 169 -231 215 -47 34 -62 50 -71 83 -6 22 -21
59 -33 83 -27 52 -82 80 -156 81 -36 0 -60 7 -85 24 -52 35 -310 131 -435 162
-60 15 -112 28 -113 30 -2 1 19 30 46 63 27 32 63 87 78 120 24 49 33 59 49
55 11 -3 76 -24 145 -45z m-365 -344 c39 -8 140 -38 224 -67 131 -44 162 -59
202 -94 26 -23 65 -47 86 -54 21 -7 46 -22 55 -34 l18 -21 0 24 c0 13 9 54 20
91 20 65 21 68 56 72 47 6 62 -13 45 -55 -8 -18 -18 -54 -23 -82 -19 -98 -24
-110 -41 -109 -15 2 -16 -1 -5 -14 23 -27 75 -42 145 -42 l68 0 86 -88 c47
-48 105 -113 128 -145 50 -65 47 -76 -21 -96 -64 -19 -147 -73 -209 -136 l-54
-55 -45 56 c-110 138 -329 313 -499 398 -76 39 -181 76 -297 106 l-80 21 -19
52 c-21 58 -36 167 -22 167 5 0 7 6 4 13 -2 6 2 17 9 22 7 6 14 16 16 24 5 24
42 59 63 60 11 0 52 -6 90 -14z m-131 -500 c126 -29 307 -111 443 -201 153
-102 309 -267 383 -406 59 -110 71 -160 80 -343 10 -183 16 -242 25 -266 5
-14 -10 -17 -102 -22 -142 -9 -153 -6 -153 45 0 58 -28 184 -59 264 -28 72
-114 213 -179 293 -46 56 -164 150 -250 198 -49 27 -297 123 -319 123 -1 0
-14 20 -29 45 -20 35 -28 65 -35 142 -4 54 -8 113 -9 132 l0 34 48 -7 c26 -3
96 -17 156 -31z m-364 -109 c-5 -126 -7 -135 -33 -169 -22 -30 -41 -40 -100
-57 -39 -12 -101 -32 -137 -46 -127 -49 -309 -185 -400 -300 -99 -124 -185
-329 -198 -474 l-7 -75 -92 -3 -92 -3 -29 63 c-19 42 -45 78 -80 109 l-51 46
48 140 c49 146 79 206 164 333 87 129 247 281 396 375 165 103 423 192 566
194 l50 1 -5 -134z m1813 -98 c14 -12 15 -32 10 -171 -4 -117 -10 -162 -20
-173 -17 -16 -23 -17 -43 -4 -11 7 -16 42 -21 147 -4 76 -10 150 -14 164 -5
20 -2 28 17 37 31 14 51 14 71 0z m758 -133 c-2 -77 -6 -158 -10 -180 -6 -36
-10 -40 -37 -43 l-31 -3 -6 178 c-7 195 -7 195 53 191 l35 -3 -4 -140z m-313
-45 l132 0 0 -117 c0 -132 13 -168 69 -198 64 -32 159 -4 193 58 7 12 15 75
18 139 4 65 9 121 13 124 10 10 84 -44 128 -95 70 -79 70 -82 67 -673 -3 -518
-3 -523 -25 -568 -29 -58 -89 -121 -139 -146 -37 -18 -69 -19 -557 -22 -588
-3 -555 -7 -654 82 -62 56 -87 115 -97 230 l-7 79 46 -51 c59 -65 125 -92 228
-92 119 0 208 57 269 172 19 36 23 58 23 133 0 99 -18 153 -74 224 -67 84
-208 124 -308 86 -53 -20 -151 -107 -189 -167 -14 -21 -31 -38 -39 -38 -20 0
-19 3 14 39 16 17 32 48 35 68 4 21 10 162 14 314 l7 276 28 42 c30 46 109 91
159 91 24 0 27 -4 32 -42 3 -24 5 -74 3 -113 -2 -83 19 -137 67 -166 44 -27
77 -24 124 11 66 47 76 70 80 179 5 158 1 153 127 146 44 -3 140 -5 213 -5z
m-1978 -125 c150 -45 273 -125 377 -244 71 -81 100 -127 88 -139 -3 -3 -5 0
-5 7 0 9 -5 9 -21 0 -16 -8 -23 -8 -29 1 -10 16 -50 -9 -50 -31 0 -9 -7 -22
-16 -30 -14 -11 -14 -13 0 -21 24 -13 19 -28 -9 -28 -14 0 -25 -4 -25 -10 0
-5 5 -10 10 -10 18 0 11 -35 -10 -48 -11 -7 -20 -23 -20 -37 0 -14 -7 -28 -15
-31 -12 -5 -13 -25 -8 -117 9 -173 -29 -287 -129 -393 -148 -157 -364 -190
-577 -89 l-75 36 -23 -25 c-13 -14 -23 -29 -23 -34 0 -15 -183 -92 -220 -92
-14 0 -83 97 -118 166 -75 148 -99 284 -82 454 14 144 48 248 117 359 123 196
305 323 528 367 87 17 259 11 335 -11z m-2623 -566 c66 -32 117 -87 142 -153
26 -71 27 -120 0 -191 -26 -69 -54 -104 -121 -146 -48 -31 -59 -34 -128 -34
-90 1 -135 21 -197 88 -70 76 -94 214 -54 303 65 144 218 201 358 133z m1031
-76 c82 -53 116 -177 73 -262 -25 -48 -81 -97 -121 -106 -108 -24 -234 92
-234 215 0 142 163 230 282 153z m3015 -7 c39 -16 94 -76 103 -112 9 -36 -1
-98 -23 -141 -28 -54 -66 -78 -118 -76 -60 2 -93 20 -132 71 -54 71 -44 160
24 223 55 51 89 59 146 35z m-2579 -269 c3 -12 6 -33 6 -47 1 -77 97 -309 168
-406 157 -215 369 -350 642 -408 53 -12 54 -20 11 -77 -23 -30 -41 -62 -41
-72 0 -24 26 -74 61 -117 19 -22 29 -46 29 -67 0 -41 -11 -42 -143 -12 -420
93 -761 346 -926 684 -60 125 -98 229 -107 295 -6 49 -5 54 40 119 25 37 51
82 57 99 10 31 12 31 82 34 96 4 114 0 121 -25z m-863 -4 c30 -84 92 -163 167
-215 25 -17 41 -33 34 -36 -7 -2 -12 -7 -12 -12 0 -9 160 -171 209 -212 18
-15 37 -25 42 -23 4 3 16 -9 25 -27 38 -76 122 -209 186 -296 37 -50 68 -97
68 -103 0 -5 4 -8 9 -5 5 3 14 -1 21 -9 9 -10 9 -15 1 -15 -6 0 -11 5 -11 11
0 5 -5 7 -10 4 -6 -4 -8 -11 -5 -16 4 -5 -1 -9 -9 -9 -9 0 -16 5 -16 10 0 6
-7 10 -15 10 -35 0 0 -60 69 -120 155 -135 395 -273 546 -315 101 -28 203 -68
285 -112 70 -38 78 -47 71 -88 -4 -21 -2 -44 6 -57 7 -13 11 -29 10 -35 -4
-17 15 -17 21 0 3 6 6 -7 6 -31 1 -26 -3 -41 -9 -37 -5 3 -10 1 -10 -4 0 -17
20 -13 27 5 5 13 7 13 14 2 5 -7 9 -21 9 -30 0 -24 -26 -23 -146 6 -54 14
-128 30 -164 36 -90 15 -237 61 -349 109 -104 45 -185 90 -177 98 3 3 -3 18
-14 33 -11 16 -20 33 -20 39 0 8 -102 91 -112 91 -2 0 -3 -34 -3 -76 0 -75 -1
-76 -38 -110 -31 -29 -44 -34 -85 -34 -60 0 -88 20 -102 71 -13 47 10 147 41
174 18 17 99 18 144 1 11 -4 4 2 -15 13 -19 11 -63 30 -98 41 -77 27 -144 86
-253 222 -84 105 -171 251 -219 368 -92 222 -168 489 -177 623 l-6 87 27 0
c20 0 29 -7 37 -27z m3013 -201 c0 -206 -2 -232 -21 -277 -95 -231 -321 -468
-574 -604 -123 -66 -328 -125 -459 -133 -50 -3 -55 -1 -58 18 -4 26 18 75 53
123 32 43 31 69 -1 132 -14 28 -23 56 -21 63 3 6 40 20 83 30 277 64 521 250
653 498 42 78 81 193 102 298 7 36 18 68 24 72 5 4 57 8 115 8 l105 0 -1 -228z
m-3180 -139 c38 -163 153 -503 177 -523 3 -3 14 -21 24 -40 l18 -35 -23 20
-23 20 11 -20 c5 -11 18 -40 28 -65 11 -25 44 -79 74 -120 31 -41 81 -109 111
-150 87 -116 248 -295 308 -340 30 -22 66 -51 80 -63 40 -34 239 -120 406
-178 83 -28 185 -66 228 -85 100 -44 179 -54 208 -28 l21 19 -39 17 -38 17 45
-6 c50 -7 95 -21 70 -22 -27 -1 -88 -73 -120 -143 -37 -78 -31 -77 -165 -49
-199 42 -449 142 -634 252 -207 125 -441 328 -600 523 -75 91 -198 281 -254
391 -57 113 -156 353 -163 396 -8 48 12 85 92 170 35 38 64 73 64 79 0 6 11
22 25 36 14 14 25 29 25 34 0 6 4 10 9 10 4 0 20 -53 35 -117z m-486 -193 c29
-11 57 -18 62 -15 5 3 25 -44 44 -106 20 -61 44 -130 55 -152 11 -23 46 -98
79 -167 32 -69 82 -162 111 -208 28 -46 50 -86 47 -90 -2 -4 20 -41 50 -82 29
-41 79 -110 109 -153 31 -43 91 -114 133 -158 76 -79 226 -204 236 -197 11 7
175 -173 195 -214 11 -24 28 -72 37 -108 9 -35 24 -70 33 -78 52 -42 -187 93
-290 164 -172 119 -245 180 -385 320 -223 223 -357 411 -509 716 -75 150 -155
346 -155 379 0 3 9 16 20 29 11 13 20 34 20 47 0 18 43 93 54 93 0 0 25 -9 54
-20z m3952 -181 c80 -28 160 -56 178 -62 17 -7 32 -16 32 -21 0 -13 -77 -152
-114 -206 -47 -70 -193 -227 -276 -298 -156 -133 -357 -250 -599 -348 -158
-63 -332 -102 -504 -113 -103 -6 -107 -5 -107 14 0 14 3 16 9 7 8 -14 139 -16
160 -3 7 5 4 29 -9 71 -28 91 -26 159 6 231 l26 58 157 52 c207 68 282 106
451 227 130 94 278 251 364 385 27 41 43 57 59 57 12 0 87 -23 167 -51z m685
-79 c12 -20 -80 -219 -148 -320 -29 -43 -124 -169 -134 -180 -3 -3 -2 6 1 20
6 19 5 21 -3 10 -6 -8 -11 -25 -11 -36 0 -12 -8 -28 -17 -35 -16 -13 -17 -12
-4 4 7 9 11 17 7 17 -3 0 -1 11 4 25 7 19 6 27 -3 30 -6 3 -13 17 -14 31 -2
35 -43 63 -43 29 0 -8 -16 -19 -40 -25 -22 -6 -40 -15 -40 -19 0 -5 -9 -11
-19 -14 -11 -2 -22 -17 -25 -34 -6 -25 -11 -29 -34 -25 -22 3 -30 -2 -39 -21
-12 -25 -64 -43 -87 -30 -6 3 -8 3 -5 -1 8 -9 -40 -61 -63 -69 -22 -8 -25 18
-3 27 8 3 15 11 15 18 0 9 -3 8 -10 -2 -5 -8 -10 -11 -10 -6 0 5 35 45 78 90
107 112 239 292 301 411 l52 100 72 -3 c40 -1 92 2 117 7 62 12 98 13 105 1z
m-2039 -1213 c102 -52 171 -178 162 -292 -12 -139 -127 -258 -264 -272 -68 -7
-127 9 -186 52 -56 41 -92 98 -115 186 -14 57 -15 74 -5 121 24 107 95 192
187 226 51 20 163 9 221 -21z"/>
<path d="M3875 7898 c-30 -16 -85 -70 -85 -83 0 -7 9 -20 20 -30 11 -10 33
-42 50 -71 32 -56 54 -74 93 -74 48 0 107 69 107 124 0 42 -30 105 -60 126
-31 22 -93 26 -125 8z"/>
<path d="M7111 6641 c-30 -30 -35 -75 -14 -119 l18 -37 87 -3 c77 -2 90 0 108
18 25 25 28 105 4 138 -14 20 -24 22 -100 22 -69 0 -87 -3 -103 -19z"/>
<path d="M7494 6636 c-25 -19 -26 -91 -1 -129 17 -26 21 -27 101 -27 70 0 88
3 111 22 24 19 27 26 23 69 -7 74 -16 79 -122 79 -64 0 -98 -4 -112 -14z"/>
<path d="M7113 6304 c-21 -21 -24 -32 -20 -61 11 -65 28 -74 131 -71 l91 3 13
39 c16 50 1 101 -31 110 -12 3 -53 6 -90 6 -60 0 -71 -3 -94 -26z"/>
<path d="M7492 6308 c-15 -15 -16 -79 0 -113 10 -23 16 -25 82 -25 39 0 88 5
108 10 32 9 38 16 44 47 5 25 2 45 -7 62 -14 25 -19 26 -115 29 -69 2 -103 -1
-112 -10z"/>
<path d="M7106 5984 c-18 -17 -21 -70 -6 -108 9 -26 11 -26 114 -26 l105 0 11
41 c8 29 8 49 0 75 l-12 34 -98 0 c-76 0 -102 -4 -114 -16z"/>
<path d="M7494 5992 c-36 -24 -38 -86 -5 -130 16 -22 20 -23 120 -16 96 7 103
8 112 31 13 34 11 97 -3 111 -13 13 -205 17 -224 4z"/>
<path d="M7509 8452 c-25 -23 -33 -38 -36 -79 -5 -45 -2 -53 25 -84 26 -29 37
-34 76 -34 55 0 93 32 106 90 25 109 -89 180 -171 107z"/>
<path d="M3782 2683 l-43 -4 2 -560 c2 -642 -10 -579 109 -579 67 0 71 1 80
26 6 14 10 44 10 66 l0 40 41 -37 c102 -92 233 -116 338 -61 151 78 248 249
239 420 -7 139 -99 276 -227 339 -57 28 -75 32 -146 32 -77 0 -84 -2 -150 -42
l-70 -41 -5 201 -5 202 -65 1 c-36 0 -84 -1 -108 -3z m403 -514 c116 -32 177
-150 141 -273 -27 -91 -99 -156 -173 -156 -41 0 -125 43 -155 78 -14 17 -32
48 -38 68 -16 47 -8 159 13 201 18 34 72 72 121 83 44 11 47 11 91 -1z"/>
<path d="M7468 2670 c-17 -10 -18 -44 -17 -493 1 -265 4 -513 8 -552 l6 -70
75 -3 c126 -5 120 -11 120 125 l0 116 39 42 39 42 61 -86 c133 -187 178 -246
189 -245 7 1 51 2 100 3 48 1 93 5 101 10 18 11 -2 44 -124 206 -154 204 -167
223 -158 239 7 13 151 177 251 287 24 27 41 53 37 58 -4 7 -51 11 -119 11
l-113 0 -89 -102 c-145 -167 -206 -233 -211 -228 -2 3 -4 142 -4 310 1 178 -3
311 -9 320 -11 18 -156 26 -182 10z"/>
<path d="M4503 2623 l-33 -4 0 -98 0 -98 107 -6 c58 -4 128 -7 155 -7 l48 0 0
-404 c0 -239 4 -415 10 -430 9 -25 12 -26 104 -26 56 0 97 4 101 11 4 6 8 198
10 427 2 229 4 421 4 425 1 4 61 7 135 6 74 0 139 2 145 6 7 4 11 46 11 106
l0 99 -382 -2 c-211 0 -398 -3 -415 -5z"/>
<path d="M2495 2238 c0 -348 -2 -386 -18 -415 -52 -97 -165 -92 -275 11 -27
25 -53 46 -57 46 -4 0 -36 -27 -72 -60 -35 -33 -68 -60 -73 -60 -23 0 -6 -31
43 -77 104 -99 207 -138 341 -131 127 7 216 58 273 155 48 83 53 127 53 536
l0 377 -107 0 -108 0 0 -382z"/>
<path d="M5653 2360 c-49 -11 -119 -56 -143 -92 l-21 -33 6 46 c10 76 6 79
-101 79 l-94 0 2 -402 3 -403 95 0 95 0 6 185 c8 246 14 282 53 332 48 63 78
81 158 93 l73 11 3 97 3 97 -53 -1 c-29 -1 -67 -4 -85 -9z"/>
<path d="M6035 2350 c-80 -20 -205 -69 -205 -79 0 -3 10 -17 21 -31 11 -14 38
-51 60 -84 30 -45 40 -55 45 -42 19 49 182 83 265 56 47 -16 99 -71 99 -104 0
-24 -1 -24 -97 -23 -109 1 -220 -17 -273 -44 -47 -24 -110 -87 -126 -126 -35
-82 -10 -187 60 -261 53 -57 101 -77 186 -76 86 0 159 28 223 84 l37 32 0 -46
c0 -58 14 -66 114 -66 70 0 76 2 81 23 3 12 2 150 -3 307 l-8 285 -29 54 c-74
135 -256 192 -450 141z m281 -510 c-3 -23 -12 -50 -19 -61 -21 -34 -94 -62
-164 -63 -61 -1 -66 1 -94 32 -35 39 -36 51 -8 86 31 40 51 45 178 45 l114 1
-7 -40z"/>
<path d="M6920 2351 c-74 -24 -114 -45 -160 -87 -132 -120 -168 -323 -87 -487
52 -104 95 -150 184 -194 72 -36 83 -38 168 -38 87 0 95 2 176 42 46 23 102
58 124 77 l40 36 -40 33 c-22 17 -54 46 -71 64 l-32 32 -22 -25 c-32 -33 -117
-74 -154 -74 -91 0 -163 57 -190 151 -20 66 -20 92 -1 156 27 90 126 154 214
138 38 -7 125 -48 152 -71 8 -8 20 -14 25 -14 15 0 116 129 110 139 -14 22
-147 103 -198 121 -71 25 -163 25 -238 1z"/>
<path d="M3102 2341 c-118 -41 -221 -139 -262 -248 -33 -88 -26 -207 19 -297
115 -233 366 -315 571 -185 59 37 133 114 159 164 106 208 28 441 -183 545
-61 30 -80 35 -160 37 -69 2 -104 -2 -144 -16z m206 -190 c45 -23 87 -66 101
-104 18 -47 13 -136 -10 -184 -42 -87 -122 -125 -217 -103 -173 39 -206 284
-53 387 44 30 126 31 179 4z"/>
</g>
</svg>
